<svg width="175" height="61" viewBox="0 0 175 61" fill="none" xmlns="http://www.w3.org/2000/svg">
<path d="M43.3347 22.3868C44.0665 22.2553 44.599 21.6185 44.599 20.875L0 6.5L95.7021 22.1596L110.519 0L144.562 20.875L175 17.7007L165.041 20.7152C147.998 25.8736 138.686 44.1913 144.562 61L129.424 47.5L120.699 22.1596L110.519 0L103.248 47.5L111.974 61L70.7433 44.9C65.8717 32.7333 53.5807 25.2172 40.5307 26.4247L0 30.175L43.3347 22.3868Z" fill="#A66CF8"/>
<path d="M55.5 0L59.5722 19.4202L75.7786 5.82498L66.1611 23.6523L88.3114 21.075L68.6778 30.5L88.3114 39.925L66.1611 37.3477L75.7786 55.175L59.5722 41.5798L55.5 61L51.4278 41.5798L35.2214 55.175L44.8389 37.3477L22.6885 39.925L42.3222 30.5L22.6885 21.075L44.8389 23.6523L35.2214 5.82498L51.4278 19.4202L55.5 0Z" fill="url(#paint0_radial_2002_3)"/>
<defs>
<radialGradient id="paint0_radial_2002_3" cx="0" cy="0" r="1" gradientUnits="userSpaceOnUse" gradientTransform="translate(55.5 30.5) rotate(90) scale(30.5 34.5)">
<stop stop-color="#ED2575"/>
<stop offset="0.836538" stop-color="#431FD4"/>
</radialGradient>
</defs>
</svg>
